HIERARCHY
ROOT Hips
{
	OFFSET 0.000000 0.000000 0.000000
	CHANNELS 6 Xposition Yposition Zposition Zrotation Yrotation Xrotation 
	JOINT LHipJoint
	{
		OFFSET 0.000000 0.000000 0.000000
		CHANNELS 3 Zrotation Yrotation Xrotation
		JOINT LeftUpLeg
		{
			OFFSET 1.363060 -1.794630 0.839290
			CHANNELS 3 Zrotation Yrotation Xrotation
			JOINT LeftLeg
			{
				OFFSET 2.448110 -6.726130 0.000000
				CHANNELS 3 Zrotation Yrotation Xrotation
				JOINT LeftFoot
				{
					OFFSET 2.562200 -7.039590 0.000000
					CHANNELS 3 Zrotation Yrotation Xrotation
					JOINT LeftToeBase
					{
						OFFSET 0.157640 -0.433110 2.322550
						CHANNELS 3 Zrotation Yrotation Xrotation
						End Site
						{
							OFFSET 0.000000 0.000000 0.000000
						}
					}
				}
			}
		}
	}
	JOINT RHipJoint
	{
		OFFSET 0.000000 0.000000 0.000000
		CHANNELS 3 Zrotation Yrotation Xrotation
		JOINT RightUpLeg
		{
			OFFSET -1.305520 -1.794630 0.839290
			CHANNELS 3 Zrotation Yrotation Xrotation
			JOINT RightLeg
			{
				OFFSET -2.542530 -6.985550 0.000000
				CHANNELS 3 Zrotation Yrotation Xrotation
				JOINT RightFoot
				{
					OFFSET -2.568260 -7.056230 0.000000
					CHANNELS 3 Zrotation Yrotation Xrotation
					JOINT RightToeBase
					{
						OFFSET -0.164730 -0.452590 2.363150
						CHANNELS 3 Zrotation Yrotation Xrotation
						End Site
						{
							OFFSET 0.000000 0.000000 0.000000
						}
					}
				}
			}
		}
	}
}
MOTION
Frames: 11
Frame Time: 0.008333
12.678661 12.580053 2.343665 126.881718 -88.368464 -40.580795 -9.176060 -0.793144 3.987482 -4.929936 -16.785743 -133.849386 0.154041 10.021056 83.183286 4.494721 6.272780 -34.886042 -3.821299 0.000000 -41.246700 9.924195 0.979666 5.222118 3.210606 10.388525 -136.173872 -0.177896 -11.659542 84.212609 -2.239558 1.716944 -30.740523 0.990001 -0.000000 -58.434100
12.646490 12.562597 2.344382 128.083658 -88.320276 -41.643921 -9.198132 -0.791019 4.001263 -4.967821 -16.825760 -133.945161 0.180429 10.050368 83.375607 4.519247 6.316165 -35.023886 -3.862901 -0.000000 -41.338800 9.927544 0.969872 5.248951 3.178687 10.374585 -136.280694 -0.197170 -11.674598 84.367522 -2.257611 1.731414 -30.910810 0.999800 -0.000000 -58.511199
12.614342 12.546229 2.345321 129.336828 -88.280702 -42.766491 -9.219233 -0.794900 4.009822 -5.000056 -16.849250 -134.023630 0.206775 10.076508 83.563725 4.544451 6.361122 -35.172999 -3.907000 0.000000 -41.408200 9.926270 0.961114 5.270206 3.149802 10.369074 -136.357608 -0.212414 -11.684241 84.505814 -2.281903 1.734436 -31.107659 1.014300 -0.000000 -58.560400
12.580856 12.528115 2.346022 130.367400 -88.241830 -43.633473 -9.243722 -0.789051 4.035325 -5.011093 -16.889217 -134.146579 0.232207 10.104864 83.748382 4.571600 6.403276 -35.322871 -3.950700 0.000000 -41.475900 9.932540 0.949153 5.310076 3.098026 10.369783 -136.474646 -0.225930 -11.696009 84.643273 -2.312394 1.733590 -31.335581 1.032700 0.000000 -58.510800
12.547361 12.511183 2.346867 131.346071 -88.209683 -44.457466 -9.265970 -0.788518 4.055224 -5.016990 -16.915759 -134.249760 0.256879 10.129649 83.928732 4.597810 6.439362 -35.484787 -3.994700 0.000000 -41.531200 9.935632 0.940391 5.344221 3.046425 10.371145 -136.564114 -0.237056 -11.703093 84.768517 -2.347193 1.723985 -31.582067 1.054600 -0.000000 -58.451900
12.513403 12.494609 2.347573 132.128183 -88.180923 -45.083399 -9.286127 -0.787405 4.075068 -5.017842 -16.941206 -134.347869 0.279946 10.152407 84.104113 4.622683 6.465360 -35.653810 -4.036999 -0.000000 -41.586600 9.940183 0.935009 5.379187 2.988006 10.368412 -136.645528 -0.247359 -11.708142 84.888779 -2.384732 1.710316 -31.842656 1.078700 -0.000000 -58.374400
12.478928 12.478432 2.348188 132.646613 -88.155605 -45.443918 -9.303856 -0.784848 4.095557 -5.013889 -16.968555 -134.442529 0.301001 10.173228 84.272990 4.645685 6.479517 -35.826850 -4.076500 -0.000000 -41.654100 9.947382 0.932865 5.415640 2.922837 10.358984 -136.723161 -0.257413 -11.712057 85.004492 -2.423356 1.694239 -32.107701 1.103800 -0.000000 -58.297800
12.443869 12.462593 2.348617 132.860654 -88.132663 -45.498418 -9.318658 -0.779912 4.116142 -5.009703 -16.999964 -134.529439 0.319504 10.191844 84.433193 4.666404 6.481547 -36.000176 -4.112300 0.000000 -41.744000 9.958095 0.934426 5.453326 2.852286 10.340170 -136.796477 -0.267785 -11.715164 85.116279 -2.461707 1.676778 -32.369524 1.128900 -0.000000 -58.239700
12.408620 12.448131 2.348944 132.810888 -88.115424 -45.306303 -9.328201 -0.777433 4.128145 -5.014694 -17.024600 -134.585218 0.335878 10.206751 84.586086 4.683725 6.471807 -36.174848 -4.144500 0.000001 -41.848500 9.968407 0.941533 5.482114 2.791819 10.311432 -136.838384 -0.278282 -11.715845 85.221888 -2.497945 1.658396 -32.619616 1.153100 -0.000000 -58.240600
12.371742 12.432256 2.348658 132.286008 -88.095872 -44.611712 -9.337492 -0.761170 4.153344 -5.016891 -17.076586 -134.668850 0.348557 10.222919 84.725421 4.700114 6.452983 -36.334067 -4.171400 0.000000 -42.010100 9.990268 0.949448 5.528133 2.708574 10.272034 -136.916165 -0.290364 -11.719250 85.328225 -2.534366 1.638695 -32.864231 1.177600 -0.000001 -58.217600
12.334485 12.417607 2.348264 131.527983 -88.082553 -43.702586 -9.342292 -0.746749 4.170217 -5.032792 -17.121640 -134.718758 0.359762 10.235415 84.856829 4.713989 6.430193 -36.487253 -4.195800 0.000000 -42.194999 10.011220 0.961588 5.565691 2.638997 10.226030 -136.960394 -0.302349 -11.720039 85.426812 -2.569335 1.614713 -33.095380 1.202000 -0.000000 -58.257600
